<?xml version="1.0" encoding="utf-8"?>
<!-- Generator: Adobe Illustrator 27.6.1, SVG Export Plug-In . SVG Version: 6.00 Build 0)  -->
<svg version="1.1" id="Layer_1" xmlns="http://www.w3.org/2000/svg" xmlns:xlink="http://www.w3.org/1999/xlink" x="0px" y="0px"
	 viewBox="0 0 36 36" style="enable-background:new 0 0 36 36;" xml:space="preserve">
<style type="text/css">
	.st0{fill:#2B2722;}
	.st1{fill:url(#SVGID_1_);}
	.st2{fill:url(#SVGID_00000049915582545217426280000004750102863658533304_);}
	.st3{fill:url(#SVGID_00000022528023057337079460000010296496765990398894_);}
	.st4{fill:url(#SVGID_00000117664019738915704800000011310514591805789105_);}
	.st5{fill:url(#SVGID_00000005231701855335839090000011084750349635791240_);}
	.st6{fill:url(#SVGID_00000161609839533406809770000018070750727431910821_);}
	.st7{fill:#282522;}
	.st8{fill:#3E3C3B;}
	.st9{fill:#373534;}
	.st10{fill:#323130;}
	.st11{fill:#484645;}
	.st12{fill:#242220;}
	.st13{fill:#2E2C2B;}
	.st14{fill:#2F2D2C;}
	.st15{fill:#413F3E;}
	.st16{fill:#545251;}
	.st17{fill:#40403F;}
	.st18{fill:#464443;}
	.st19{fill:#3C3A3A;}
	.st20{fill:#272625;}
	.st21{fill:#323030;}
	.st22{fill:url(#SVGID_00000129201839941315683590000004268689126573754284_);}
	.st23{fill:#2B2623;}
	.st24{fill:#453E30;}
	.st25{fill:url(#SVGID_00000013169473151445109920000008176504686012962233_);}
	.st26{fill:#E5BB20;}
	.st27{fill:#3E382E;}
	.st28{fill:#D9B227;}
	.st29{fill:#282623;}
	.st30{fill:#252022;}
	.st31{fill:#343231;}
	.st32{fill:#2B2A28;}
	.st33{fill:#312F2E;}
	.st34{fill:#2A2827;}
	.st35{fill:#2D2B2A;}
	.st36{fill:#252322;}
	.st37{fill:#403F3E;}
	.st38{fill:#3B3938;}
	.st39{fill:url(#SVGID_00000142163872873842645200000016919258165516110469_);}
</style>
<g>
	<path class="st7" d="M24.65,18.02c-0.01,3.69-2.98,6.64-6.7,6.63c-3.69-0.01-6.62-2.99-6.62-6.71c0-3.61,3.02-6.6,6.66-6.6
		C21.67,11.33,24.66,14.34,24.65,18.02z"/>
	<path class="st8" d="M24,12.28c-0.28-0.1-0.37-0.32-0.18-0.52c0.67-0.71,1.36-1.39,2.06-2.07c0.13-0.13,0.3-0.17,0.46-0.01
		c0.11,0.12,0.13,0.29,0.03,0.39c-0.72,0.73-1.46,1.45-2.19,2.17C24.13,12.26,24.06,12.26,24,12.28z"/>
	<path class="st8" d="M12.3,24.06c-0.1,0.14-0.17,0.27-0.27,0.37c-0.58,0.59-1.17,1.18-1.76,1.76c-0.17,0.16-0.36,0.35-0.59,0.15
		c-0.25-0.21-0.06-0.41,0.1-0.58c0.6-0.61,1.21-1.22,1.82-1.83c0.15-0.15,0.31-0.29,0.52-0.16C12.2,23.83,12.24,23.96,12.3,24.06z"
		/>
	<path class="st9" d="M12.28,12.01c-0.05,0.06-0.1,0.16-0.19,0.22c-0.14,0.1-0.29,0.02-0.39-0.08c-0.67-0.66-1.34-1.33-2.01-2
		c-0.13-0.13-0.18-0.29-0.06-0.46C9.73,9.56,9.89,9.51,10,9.63c0.74,0.72,1.46,1.45,2.19,2.17C12.24,11.84,12.25,11.9,12.28,12.01z"
		/>
	<path class="st10" d="M26.41,26.14c-0.04,0.24-0.24,0.35-0.38,0.24c-0.85-0.64-1.56-1.42-2.25-2.23c-0.05-0.06-0.01-0.23,0.04-0.31
		c0.09-0.15,0.27-0.15,0.38-0.05c0.72,0.7,1.43,1.41,2.14,2.12C26.39,25.98,26.39,26.08,26.41,26.14z"/>
	<path class="st11" d="M8.25,18.35c-0.36-0.17-1.2,0.34-1.21-0.36c-0.01-0.59,0.8-0.21,1.24-0.3c0.28-0.05,0.57-0.02,0.86-0.01
		c0.25,0.01,0.58-0.05,0.6,0.31c0.02,0.37-0.31,0.34-0.56,0.35C8.9,18.35,8.61,18.35,8.25,18.35z"/>
	<path class="st12" d="M27.41,18.32c-0.33-0.13-1.1,0.27-1.1-0.28c0-0.63,0.77-0.25,1.2-0.33c0.33-0.06,0.69-0.01,1.03-0.01
		c0.21,0.01,0.43,0.04,0.42,0.31c-0.01,0.26-0.23,0.29-0.44,0.29C28.18,18.32,27.83,18.32,27.41,18.32z"/>
	<path class="st13" d="M18.29,27.71c0,0.31,0.01,0.63,0,0.94C18.28,28.84,18.21,29,18,29c-0.2,0-0.3-0.15-0.3-0.35
		c0-0.69,0-1.37,0-2.06c0-0.19,0.1-0.35,0.29-0.36c0.21-0.01,0.29,0.17,0.29,0.35C18.29,26.96,18.28,27.34,18.29,27.71
		C18.28,27.71,18.28,27.71,18.29,27.71z"/>
	<path class="st14" d="M18.28,8.57c-0.19,0.31,0.37,1.11-0.33,1.11c-0.51,0-0.2-0.77-0.26-1.19c-0.05-0.37-0.01-0.75,0-1.12
		c0-0.19,0.1-0.36,0.29-0.36c0.21-0.01,0.29,0.17,0.29,0.36C18.29,7.74,18.28,8.11,18.28,8.57z"/>
	<path class="st15" d="M9.18,14.1c0.38,0.27,1.03,0.15,1.21,0.75c0.05,0.16-0.2,0.31-0.36,0.25c-0.45-0.18-1.05-0.13-1.23-0.72
		C8.75,14.2,8.97,14.1,9.18,14.1z"/>
	<path class="st16" d="M9.25,22.06c-0.23,0.02-0.47-0.07-0.39-0.31c0.17-0.55,0.76-0.53,1.19-0.71c0.2-0.09,0.4,0.04,0.4,0.3
		C10.46,21.55,9.63,22.04,9.25,22.06z"/>
	<path class="st17" d="M22.06,26.79c-0.03,0.26-0.17,0.43-0.34,0.34c-0.49-0.27-0.55-0.82-0.68-1.3c-0.05-0.17,0.16-0.36,0.32-0.28
		C21.86,25.83,21.84,26.41,22.06,26.79z"/>
	<path class="st16" d="M14.96,10.02c0.03,0.27-0.09,0.47-0.26,0.42c-0.61-0.16-0.57-0.77-0.76-1.22c-0.07-0.16,0.09-0.4,0.26-0.36
		C14.83,9.01,14.71,9.67,14.96,10.02z"/>
	<path class="st18" d="M21.23,10.43c-0.31-0.11-0.43-0.29-0.3-0.49c0.23-0.39,0.1-1.05,0.76-1.12c0.2-0.02,0.26,0.23,0.19,0.4
		C21.69,9.65,21.66,10.18,21.23,10.43z"/>
	<path class="st19" d="M25.61,21.27c0.01-0.27,0.15-0.4,0.34-0.34c0.45,0.15,1.01,0.14,1.22,0.67c0.07,0.18-0.14,0.33-0.32,0.28
		C26.39,21.76,25.89,21.68,25.61,21.27z"/>
	<path class="st20" d="M14.72,25.63c0.28,0.04,0.42,0.17,0.34,0.35c-0.18,0.43-0.14,1-0.68,1.2c-0.18,0.07-0.33-0.16-0.27-0.33
		C14.26,26.41,14.34,25.91,14.72,25.63z"/>
	<path class="st21" d="M27.14,14.27c-0.17,0.39-0.56,0.4-0.85,0.55c-0.2,0.11-0.43,0.22-0.64,0.04c-0.05-0.04-0.1-0.16-0.08-0.22
		c0.13-0.4,0.54-0.39,0.83-0.54c0.2-0.1,0.42-0.23,0.64-0.05C27.09,14.1,27.1,14.2,27.14,14.27z"/>
	
		<linearGradient id="SVGID_1_" gradientUnits="userSpaceOnUse" x1="11.8799" y1="-22.0726" x2="24.1" y2="-22.0726" gradientTransform="matrix(1 0 0 -1 0 -4.0674)">
		<stop  offset="0.2495" style="stop-color:#EDC11B"/>
		<stop  offset="1" style="stop-color:#F37421"/>
	</linearGradient>
	<path class="st1" d="M17.96,11.91c3.39-0.01,6.13,2.71,6.14,6.09c0,3.37-2.74,6.11-6.12,6.11c-3.29,0-6.09-2.74-6.1-5.96
		C11.86,14.68,14.55,11.92,17.96,11.91z"/>
</g>
</svg>
