<?xml version="1.0" encoding="utf-8"?>
<!-- Generator: Adobe Illustrator 27.6.1, SVG Export Plug-In . SVG Version: 6.00 Build 0)  -->
<svg version="1.1" id="Layer_1" xmlns="http://www.w3.org/2000/svg" xmlns:xlink="http://www.w3.org/1999/xlink" x="0px" y="0px"
	 viewBox="0 0 36 36" style="enable-background:new 0 0 36 36;" xml:space="preserve">
<style type="text/css">
	.st0{fill:#2B2722;}
	.st1{fill:url(#SVGID_1_);}
	.st2{fill:url(#SVGID_00000013162496969820172560000010503257752732061611_);}
	.st3{fill:url(#SVGID_00000044881677022532563030000010633370970209602217_);}
	.st4{fill:url(#SVGID_00000095325720831347428240000004720028318697110656_);}
	.st5{fill:url(#SVGID_00000114752516001535747380000009722173838135306910_);}
	.st6{fill:url(#SVGID_00000098901247446358028820000010081836827664811145_);}
	.st7{fill:#282522;}
	.st8{fill:#3E3C3B;}
	.st9{fill:#373534;}
	.st10{fill:#323130;}
	.st11{fill:#484645;}
	.st12{fill:#242220;}
	.st13{fill:#2E2C2B;}
	.st14{fill:#2F2D2C;}
	.st15{fill:#413F3E;}
	.st16{fill:#545251;}
	.st17{fill:#40403F;}
	.st18{fill:#464443;}
	.st19{fill:#3C3A3A;}
	.st20{fill:#272625;}
	.st21{fill:#323030;}
	.st22{fill:url(#SVGID_00000147198917241576090350000014755128057178676626_);}
	.st23{fill:#2B2623;}
	.st24{fill:#453E30;}
	.st25{fill:url(#SVGID_00000127761579251035452960000013087847569610737061_);}
	.st26{fill:#E5BB20;}
	.st27{fill:#3E382E;}
	.st28{fill:#D9B227;}
	.st29{fill:#282623;}
	.st30{fill:#252022;}
	.st31{fill:#343231;}
	.st32{fill:#2B2A28;}
	.st33{fill:#312F2E;}
	.st34{fill:#2A2827;}
	.st35{fill:#2D2B2A;}
	.st36{fill:#252322;}
	.st37{fill:#403F3E;}
	.st38{fill:#3B3938;}
	.st39{fill:url(#SVGID_00000133491946925666773500000005578635705901714309_);}
</style>
<g>
	<path class="st23" d="M18.96,9.41c3.51,0.26,6.76,3.88,7.1,7.8c0.37,4.16-2.45,8.09-6.54,9.13c-3.8,0.96-8.25-0.9-9.62-4.06
		c3.69,0.79,6.85-0.07,9.07-3.19C21.19,15.96,20.98,12.69,18.96,9.41z"/>
	<path class="st24" d="M16.52,19.34c-0.67-0.29-0.87,0.19-1.08,0.7c-0.09,0.21-0.16,0.52-0.46,0.49c-0.32-0.03-0.31-0.35-0.32-0.58
		c-0.03-0.73-0.4-1.04-1.12-1.02c-0.22,0.01-0.54,0.01-0.57-0.32c-0.02-0.26,0.23-0.36,0.43-0.43c0.75-0.25,0.93-0.72,0.67-1.44
		c-0.07-0.19-0.14-0.45,0.1-0.59c0.24-0.14,0.42,0.07,0.55,0.23c0.45,0.59,0.93,0.75,1.56,0.24c0.16-0.13,0.42-0.35,0.64-0.08
		c0.2,0.24-0.01,0.47-0.12,0.67c-0.29,0.49-0.41,0.92,0.16,1.32c0.21,0.15,0.6,0.34,0.42,0.69C17.19,19.56,16.83,19.31,16.52,19.34z
		"/>
	
		<linearGradient id="SVGID_1_" gradientUnits="userSpaceOnUse" x1="10.9639" y1="-22.2319" x2="25.6122" y2="-22.2319" gradientTransform="matrix(1 0 0 -1 0 -4.0674)">
		<stop  offset="0" style="stop-color:#EDC11B"/>
		<stop  offset="1" style="stop-color:#FFFFFF"/>
	</linearGradient>
	<path class="st1" d="M20.01,10.22c2.74,0.48,5.29,3.76,5.57,7.01c0.31,3.65-1.95,7.16-5.42,8.4c-3.34,1.2-7.3,0.1-9.2-2.63
		c3.47,0.28,6.36-0.76,8.39-3.6C21.38,16.55,21.49,13.47,20.01,10.22z"/>
	<path class="st26" d="M16.66,18.9c-0.85-0.21-1.33,0.1-1.56,1.15c-0.22-0.95-0.34-1.66-1.39-1.44c0.64-0.45,1.06-0.91,0.78-1.71
		c0.98,0.53,0.98,0.53,1.89,0.15C16.05,17.75,15.96,18.37,16.66,18.9z"/>
	<g>
		<path class="st27" d="M12.66,14.8c-0.39,0.37-0.35,0.77-0.05,1.24c0.14,0.22-0.15,0.39-0.4,0.27c-0.4-0.18-0.63-0.06-0.88,0.27
			c-0.24,0.31-0.46,0.24-0.53-0.16c-0.01-0.05-0.02-0.11,0-0.16c0.17-0.67-0.85-0.41-0.76-0.93c0.07-0.41,0.93-0.2,0.8-0.93
			c-0.07-0.38,0.24-0.61,0.52-0.21s0.54,0.43,0.95,0.28C12.5,14.4,12.67,14.49,12.66,14.8z"/>
		<path class="st28" d="M11.92,15.4c0.4,0.85-0.69,0.21-0.64,0.7c-0.19-0.24-0.38-0.49-0.57-0.73c0.29-0.14,0.4-0.43,0.52-0.7
			C11.29,15.09,12.35,14.6,11.92,15.4z"/>
	</g>
	<g>
		<path class="st27" d="M16.59,13.36c-0.39,0.37-0.35,0.77-0.05,1.24c0.14,0.22-0.15,0.39-0.4,0.27c-0.4-0.18-0.63-0.06-0.88,0.27
			c-0.24,0.31-0.46,0.24-0.53-0.16c-0.01-0.05-0.02-0.11,0-0.16c0.17-0.67-0.85-0.41-0.76-0.93c0.07-0.41,0.93-0.2,0.8-0.93
			c-0.07-0.38,0.24-0.61,0.52-0.21s0.54,0.43,0.95,0.28C16.43,12.95,16.6,13.05,16.59,13.36z"/>
		<path class="st28" d="M15.86,13.96c0.4,0.85-0.69,0.21-0.64,0.7c-0.19-0.24-0.38-0.49-0.57-0.73c0.29-0.14,0.4-0.43,0.52-0.7
			C15.23,13.65,16.28,13.15,15.86,13.96z"/>
	</g>
</g>
</svg>
