<?xml version="1.0" encoding="utf-8"?>
<!-- Generator: Adobe Illustrator 27.6.1, SVG Export Plug-In . SVG Version: 6.00 Build 0)  -->
<svg version="1.1" id="Layer_1" xmlns="http://www.w3.org/2000/svg" xmlns:xlink="http://www.w3.org/1999/xlink" x="0px" y="0px"
	 viewBox="0 0 36 36" style="enable-background:new 0 0 36 36;" xml:space="preserve">
<style type="text/css">
	.st0{fill:#2B2722;}
	.st1{fill:url(#SVGID_1_);}
	.st2{fill:url(#SVGID_00000065769370711475922890000009481296576949212851_);}
	.st3{fill:url(#SVGID_00000127752722674040457080000011201363139037248655_);}
	.st4{fill:url(#SVGID_00000034779787126920601560000017623991112148594358_);}
	.st5{fill:url(#SVGID_00000138544544145955950960000014062020820454390915_);}
	.st6{fill:url(#SVGID_00000137091322036844367380000003344052922607382680_);}
	.st7{fill:#282522;}
	.st8{fill:#3E3C3B;}
	.st9{fill:#373534;}
	.st10{fill:#323130;}
	.st11{fill:#484645;}
	.st12{fill:#242220;}
	.st13{fill:#2E2C2B;}
	.st14{fill:#2F2D2C;}
	.st15{fill:#413F3E;}
	.st16{fill:#545251;}
	.st17{fill:#40403F;}
	.st18{fill:#464443;}
	.st19{fill:#3C3A3A;}
	.st20{fill:#272625;}
	.st21{fill:#323030;}
	.st22{fill:url(#SVGID_00000158745318377645357520000015998469005017693588_);}
	.st23{fill:#2B2623;}
	.st24{fill:#453E30;}
	.st25{fill:url(#SVGID_00000183934217539428922470000014558303555751789486_);}
	.st26{fill:#E5BB20;}
	.st27{fill:#3E382E;}
	.st28{fill:#D9B227;}
	.st29{fill:#282623;}
	.st30{fill:#252022;}
	.st31{fill:#343231;}
	.st32{fill:#2B2A28;}
	.st33{fill:#312F2E;}
	.st34{fill:#2A2827;}
	.st35{fill:#2D2B2A;}
	.st36{fill:#252322;}
	.st37{fill:#403F3E;}
	.st38{fill:#3B3938;}
	.st39{fill:url(#SVGID_00000160870176521731418530000008264025898740241588_);}
</style>
<g>
	<path class="st29" d="M17.98,26c-3.92,0-7.83,0-11.75,0C6,26,5.78,26,5.55,26c-0.27-0.01-0.56-0.04-0.54-0.39
		c0.02-0.28,0.29-0.3,0.53-0.3c1.13,0,2.27-0.05,3.4,0.01c0.77,0.04,1.04-0.12,1.04-0.98c-0.02-4.41,3.56-7.99,7.92-8.02
		c4.44-0.03,8.08,3.47,8.12,7.93c0.01,0.97,0.33,1.11,1.15,1.06c0.93-0.06,1.88-0.03,2.81,0c0.34,0.01,0.94-0.21,0.96,0.32
		c0.02,0.56-0.58,0.36-0.92,0.36C27.08,26.01,24.13,26,21.19,26C20.12,26,19.05,26,17.98,26z"/>
	<path class="st30" d="M17.42,27.97c-2.95,0-5.9,0-8.84,0c-0.13,0-0.26,0.02-0.39,0c-0.35-0.07-0.99,0.21-1-0.25
		c-0.02-0.52,0.62-0.27,0.95-0.28c1.88-0.03,3.76-0.02,5.64-0.02c4.15,0,8.29,0,12.44,0.01c0.13,0,0.27-0.03,0.39,0
		c0.37,0.09,1.03-0.27,1.05,0.29c0.01,0.44-0.65,0.23-1,0.23C23.57,27.97,20.5,27.97,17.42,27.97z"/>
	<path class="st31" d="M14.83,14.62c0.02,0.25-0.06,0.43-0.28,0.47c-0.22,0.04-0.35-0.14-0.42-0.33c-0.23-0.6-0.45-1.21-0.67-1.82
		c-0.5-1.36-1-2.72-1.48-4.09c-0.1-0.28-0.33-0.67,0.1-0.83c0.38-0.14,0.45,0.27,0.55,0.53c0.7,1.91,1.39,3.82,2.08,5.73
		C14.76,14.4,14.8,14.53,14.83,14.62z"/>
	<path class="st32" d="M33.12,15.85c-0.05,0.25-0.23,0.35-0.39,0.44c-1.82,1.05-3.63,2.1-5.45,3.14c-0.22,0.13-0.48,0.31-0.69,0.03
		c-0.22-0.3,0.05-0.47,0.27-0.6c1.84-1.07,3.69-2.13,5.53-3.19c0.2-0.11,0.4-0.24,0.62-0.04C33.08,15.69,33.1,15.79,33.12,15.85z"/>
	<path class="st33" d="M24.15,8.55c-0.02,0.05-0.07,0.2-0.13,0.35c-0.68,1.86-1.35,3.71-2.03,5.56c-0.1,0.28-0.16,0.76-0.6,0.58
		c-0.43-0.17-0.16-0.56-0.06-0.84c0.68-1.89,1.38-3.77,2.07-5.65c0.09-0.24,0.16-0.54,0.48-0.53C24.11,8.02,24.2,8.21,24.15,8.55z"
		/>
	<path class="st34" d="M9.62,19.11c-0.17,0.25-0.21,0.38-0.31,0.44c-0.19,0.12-0.37,0-0.54-0.1c-0.92-0.53-1.84-1.06-2.77-1.6
		c-0.92-0.53-1.85-1.06-2.76-1.6c-0.21-0.13-0.5-0.28-0.29-0.6c0.16-0.24,0.4-0.15,0.6-0.03c1.87,1.08,3.74,2.17,5.61,3.25
		C9.32,18.95,9.46,19.03,9.62,19.11z"/>
	<path class="st35" d="M11.79,16.58c-0.07,0.09-0.14,0.21-0.24,0.26c-0.17,0.09-0.31-0.01-0.43-0.13c-1.16-1.22-2.32-2.45-3.47-3.67
		c-0.13-0.14-0.23-0.33-0.04-0.52c0.17-0.18,0.36-0.14,0.51,0.02c1.18,1.24,2.36,2.49,3.54,3.74
		C11.72,16.35,11.74,16.45,11.79,16.58z"/>
	<path class="st10" d="M28.32,12.78c-0.14,0.19-0.24,0.35-0.36,0.49c-0.96,1.09-1.92,2.18-2.88,3.27c-0.18,0.21-0.39,0.54-0.71,0.26
		c-0.32-0.28-0.02-0.52,0.16-0.73c0.98-1.12,1.97-2.23,2.96-3.33c0.17-0.19,0.33-0.44,0.64-0.27
		C28.21,12.51,28.25,12.66,28.32,12.78z"/>
	<path class="st36" d="M18.35,11.91c0,0.64,0,1.29,0,1.93c0,0.25,0.04,0.57-0.31,0.6c-0.35,0.02-0.38-0.28-0.38-0.55
		c0-1.32-0.01-2.64-0.01-3.95c0-0.25-0.02-0.59,0.32-0.6c0.43-0.01,0.37,0.36,0.37,0.64C18.35,10.62,18.34,11.27,18.35,11.91
		C18.34,11.91,18.35,11.91,18.35,11.91z"/>
	<path class="st37" d="M28.91,22.91c-0.13,0.01-0.26,0.03-0.38,0.03c-0.3-0.01-0.75,0.14-0.77-0.31c-0.03-0.45,0.44-0.38,0.74-0.41
		c1.15-0.11,2.3-0.21,3.45-0.3c0.27-0.02,0.66-0.11,0.68,0.31c0.02,0.39-0.36,0.39-0.64,0.42C30.96,22.75,29.94,22.83,28.91,22.91z"
		/>
	<path class="st38" d="M7.59,22.93c-1.22-0.15-2.44-0.3-3.66-0.45c-0.27-0.03-0.55-0.12-0.49-0.46c0.05-0.27,0.32-0.29,0.56-0.26
		c1.25,0.15,2.5,0.31,3.75,0.47c0.26,0.03,0.56,0.09,0.48,0.45C8.16,23.02,7.84,22.93,7.59,22.93z"/>
	
		<linearGradient id="SVGID_1_" gradientUnits="userSpaceOnUse" x1="14.2154" y1="55.0566" x2="20.0525" y2="46.6029" gradientTransform="matrix(1 0 0 -1 0 73.0309)">
		<stop  offset="0" style="stop-color:#EDC11B"/>
		<stop  offset="1" style="stop-color:#F05A26"/>
	</linearGradient>
	<path class="st1" d="M17.99,25.28c-2.13,0-4.27-0.03-6.4,0.01c-0.7,0.01-0.98-0.16-0.97-0.91c0.01-4.06,3.34-7.38,7.45-7.36
		c4.06,0.02,7.35,3.36,7.31,7.38c-0.01,0.66-0.18,0.9-0.88,0.89C22.32,25.26,20.16,25.28,17.99,25.28z"/>
</g>
</svg>
