<svg width="310" height="50" viewBox="0 0 310 50" fill="none" xmlns="http://www.w3.org/2000/svg">
<g clip-path="url(#clip0_416_557)">
<path d="M146.733 16.4452H133.991L127.673 0L121.46 16.3621H107.623L107.728 16.4452L118.469 24.294L112.004 41.3829L146.733 16.4452Z" fill="#B1B3B6"/>
<path d="M61.3302 7.35046H47.7036V49.9169H61.3302V7.35046Z" fill="#B1B3B6"/>
<path d="M95.1124 32.5581C96.2498 32.392 97.4292 31.9352 98.6718 31.2292C99.9144 30.5232 101.01 29.2981 101.957 27.5955C102.905 25.8928 103.39 23.588 103.39 20.681C103.39 16.0506 102.021 12.6661 99.2826 10.5274C96.5446 8.40945 92.9431 7.32971 88.4571 7.32971H64.8264V49.8962H78.453V28.7168V14.4726H83.6341C87.7831 14.4726 89.8471 16.9435 89.8471 21.8854C89.8471 24.3771 89.1942 26.142 87.8885 27.1802C86.5827 28.2184 85.1926 28.7375 83.7183 28.7375H78.453L89.9524 50.0207L104.59 49.9377L93.2801 32.8488C93.3644 32.828 93.9751 32.7242 95.1124 32.5581Z" fill="#B1B3B6"/>
<path d="M26.158 7.35046H16.1329L15.1009 10.0706L0 49.9169H9.81452L12.2366 43.6046H12.2787L13.6055 40.1162H26.5793L27.9272 43.6046H27.9693L30.3703 49.9169H44.8183L28.4326 7.35046H26.158ZM15.122 36.1918L20.1135 23.152L22.6197 29.6927L25.105 36.1918H15.122Z" fill="#B1B3B6"/>
<path d="M293.593 7.35059H291.319H281.294L280.262 10.0707L265.161 49.917H274.975L277.397 43.6047H277.439L278.766 40.1164H291.74L293.067 43.6047H293.109L295.51 49.917H309.958L293.593 7.35059ZM280.283 36.1919L285.274 23.1521L287.781 29.6928L290.266 36.1919H280.283Z" fill="#F9B200"/>
<path d="M254.504 32.5582C255.641 32.3921 256.821 31.9353 258.063 31.2293C259.306 30.5233 260.401 29.2982 261.349 27.5956C262.296 25.8929 262.781 23.5881 262.781 20.6811C262.781 16.0507 261.412 12.6661 258.674 10.5274C255.936 8.4095 252.335 7.32977 247.848 7.32977H230.41H224.239H178.852H165.71C165.71 7.32977 155.853 6.91449 151.22 13.2683C151.199 13.2891 151.177 13.3098 151.156 13.3306C151.156 13.3306 151.156 13.3514 151.156 13.3721C150.756 13.9328 150.44 14.5349 150.167 15.1578C149.914 15.6977 149.724 16.2583 149.577 16.8397C149.577 16.8605 149.577 16.8813 149.556 16.902C149.472 17.2343 149.408 17.5665 149.366 17.8987C149.366 17.9402 149.366 17.961 149.366 18.0025C149.261 19.2899 149.177 20.2035 149.198 20.7434C149.345 24.4602 150.188 26.7027 152.02 28.4884C153.789 30.2118 156.506 31.1462 159.855 31.7068C162.909 32.0391 165.436 32.3298 167.479 32.5789C169.522 32.8073 171.207 33.2849 172.555 33.9909C173.903 34.6969 174.619 35.922 174.703 37.6454C174.703 38.1437 174.64 38.6005 174.513 39.0366C174.197 40.2201 173.46 41.0922 172.281 41.6736C171.165 42.2135 169.501 42.5872 167.331 42.7534H165.878H162.572H161.729H142.964L145.786 49.8962H155.537H157.517H171.796C171.796 49.8962 181.653 50.3115 186.287 43.9577C186.308 43.9369 186.329 43.9161 186.35 43.8954C186.35 43.8954 186.35 43.8746 186.35 43.8539C186.75 43.2932 187.066 42.6911 187.34 42.0681C187.571 41.5283 187.782 40.9676 187.929 40.3862C187.929 40.3655 187.929 40.3447 187.95 40.3032C188.035 39.9502 188.077 39.5764 188.161 39.2027C188.393 37.9776 188.54 36.6487 188.54 35.1952C188.351 30.3364 186.034 26.8896 181.674 24.8132C180.769 24.3771 179.8 23.9826 178.726 23.6711C177.062 23.2143 174.661 22.799 171.523 22.4253C169.901 22.2384 168.532 22.0515 167.395 21.8647C166.952 21.8231 166.552 21.7401 166.152 21.6362C164.193 21.0964 162.951 19.8713 162.951 18.667C162.951 18.5009 162.993 18.3348 163.014 18.1894C163.33 17.0058 164.067 16.113 165.246 15.5524C166.363 15.0125 168.026 14.6387 170.196 14.4726H171.649H183.549H196.901V49.8962H210.528V14.4726H224.302V49.8962H237.929V28.7168V14.4726H243.11C247.259 14.4726 249.323 16.9436 249.323 21.8854C249.323 24.3771 248.67 26.1421 247.364 27.1803C246.058 28.2185 244.668 28.7376 243.194 28.7376H237.929L249.428 50.0208L264.066 49.9377L252.756 32.8489C252.756 32.8281 253.388 32.7243 254.504 32.5582Z" fill="#F9B200"/>
<path d="M137.403 25.3323L127.863 32.1844L130.306 38.4967L130.116 38.0399H119.691L114.784 41.5698L110.845 44.3937L108.76 49.917H116.047L118.174 43.0233H132.033L132.243 43.6047H132.285L134.665 49.917H146.86L137.403 25.3323Z" fill="#F9B200"/>
</g>
<defs>
<clipPath id="clip0_416_557">
<rect width="310" height="50" fill="white"/>
</clipPath>
</defs>
</svg>
