<svg width="639" height="142" viewBox="0 0 639 142" fill="none" xmlns="http://www.w3.org/2000/svg">
<path d="M335.39 58.25V71.04H356.21V56.75C356.21 54.35 356.62 52.5 357.44 51.2C359.19 48.98 361.86 47.87 365.46 47.87H375.02V108.24H337.67C334.08 108.24 331.57 107.22 330.14 105.17C329.22 103.5 328.76 101.64 328.76 99.59V79.65H307.94V103.06C307.94 106.96 309.86 110.05 313.71 112.32C317.56 114.6 322.45 115.73 328.4 115.73H375.02V123.92H395.84V40.37H361.1L335.39 58.25Z" fill="#FCB316"/>
<path d="M639.01 48.14V40.37H601.79L601.84 34.59C601.84 31.66 600.66 29.4101 598.29 27.8501C595.51 26.0201 590.99 25.1001 584.72 25.1001H561.74C559.37 25.1001 557.47 24.7801 556.04 24.1301C554.91 23.4801 554.34 22.6001 554.34 21.4901V13.3H533.52V24.9601C534.55 28.1101 536.3 30.23 538.76 31.34C541.12 32.17 543.8 32.59 546.78 32.59H572.22C575.71 32.59 578.18 32.9 579.62 33.53C580.85 34.51 581.47 35.54 581.47 36.62L581.35 40.37H400.13V48.14H419.1L411.7 53.69C407.48 57.39 405.38 60.4901 405.38 62.9901V80.89L410.62 86.86L414.01 90.47V117.26C414.01 118.74 413.52 119.88 412.55 120.66C411.57 121.45 409.85 121.84 407.38 121.84L405.38 121.7V130.44H414.79C420.03 130.44 424.37 128.71 427.82 125.24C431.26 121.77 432.99 118.33 432.99 114.9V90.47L430.06 87.14L424.05 80.06V59.1001C424.05 57.3401 425.03 55.3101 426.98 52.9901C428.42 51.2301 430.42 49.6101 432.99 48.1301H443.32V124.32H463.21V48.1301H471.56H487.12C486.09 49.0601 484.85 49.7001 484.02 50.0701L481.09 51.7401L477.08 53.9601C475.33 55.8101 474.46 57.71 474.46 59.65V70.2H506.07V98.1001H501.75C499.28 98.1001 497.59 97.5901 496.66 96.5701C495.74 95.1801 495.27 93.84 495.27 92.55V84.36H474.45V93.8C474.45 98.15 476.45 101.29 480.46 103.24C483.75 105 488.68 105.88 495.26 105.88H526.41V86.17C529.7 86.91 532.06 87.6301 533.5 88.3201C534.94 89.0101 535.97 89.82 536.58 90.75V122.81H565.11V126.84C563.77 125.64 562.32 124.87 560.78 124.55C559.23 124.23 557.32 124.06 555.05 124.06L553.35 124.2L551.18 124.34C548.5 124.34 544.91 125.87 540.42 128.92C535.93 131.97 533.38 133.5 532.76 133.5H526.41V122.95H504.21V140.99H538.53C541.21 140.99 544.2 140.02 547.5 138.08C554.2 134.1 558.17 132.11 559.4 132.11L562.34 133.08C564.2 134.47 565.12 135.53 565.12 136.27V141.54H585.94V122.26L587.33 122.11L592.26 120.72L595.5 119.19L598.43 116.41L600.74 112.39C601.46 110.82 601.82 109.47 601.82 108.36V69.22H568.05V76.8501H581V111.13L579.44 113.35C578.29 114.28 577.41 114.83 576.78 115.02L574.28 115.3H557.4V48.1301H603.49H610.75V124.32H630.64V48.1301H638.97L639.01 48.14ZM536.62 79.5C535.88 78.58 534.63 77.8601 532.88 77.3501C531.13 76.8401 529.94 76.54 529.3 76.45C528.66 76.36 527.71 76.31 526.44 76.31V61.7401H495.29V57.9901C495.29 56.9701 495.44 56.1901 495.75 55.6301L497.6 52.9901C499.24 50.8601 500.99 49.2401 502.84 48.1301H536.61V79.4901L536.62 79.5Z" fill="#FCB316"/>
<path d="M31.61 43C28.83 45.13 27.45 48.37 27.45 52.71V71.03H48.27V56.74C48.27 54.34 48.68 52.49 49.5 51.19C51.25 48.97 53.92 47.86 57.52 47.86H67.08V108.23H29.73C26.14 108.23 23.63 107.21 22.2 105.16C21.28 103.49 20.82 101.63 20.82 99.58V79.64H0V103.05C0 106.95 1.92 110.04 5.77 112.31C9.62 114.59 14.51 115.72 20.46 115.72H67.08V123.91H87.9V40.36H48.42C40.5 40.36 34.9 41.24 31.61 43Z" fill="#BCBEC0"/>
<path d="M145.72 128.08H128.6V137.52H145.72V128.08Z" fill="#BCBEC0"/>
<path d="M181.65 40.65H91.75V48.14H97.61V68.68H117.96L119.04 68.96L122.28 70.35L123.98 71.88L124.6 72.71C124.8 72.9 124.91 73.36 124.91 74.1V84.37H97.62V111.85C97.93 113.24 98.75 114.67 100.09 116.15L102.4 118.65L104.71 120.45C106.56 121.56 108.26 122.37 109.8 122.88C111.34 123.39 113.14 123.64 115.2 123.64H175.8V48.14H185.05V48.12H181.66V40.65H181.65ZM154.97 116.14H124.59L122.28 115.3L119.2 112.91C118.38 111.88 117.97 110.94 117.97 110.1V91.85H145.73V73.95C145.73 72.19 145.45 70.76 144.88 69.65C144.31 68.54 143.21 67.34 141.56 66.04C140.12 64.56 138.11 63.4 135.55 62.57C133.18 61.65 130.41 61.18 127.22 61.18H118.43V48.13H154.98V116.13L154.97 116.14Z" fill="#BCBEC0"/>
<path d="M185.04 40.65V48.12H188.9V124.33H208.79V48.12H214.95V40.65H185.04Z" fill="#BCBEC0"/>
<path d="M185.04 40.65H181.65V48.12H185.04V40.65Z" fill="#BCBEC0"/>
<path d="M217.11 40.65V48.12H214.95V48.14H273.39V57.85H221.12V108.09C221.12 114.2 224.61 118.64 231.61 121.41C236.75 123.35 242.04 124.32 247.49 124.32H294.21V48.13H304.39L304.28 45.38L297.97 40.64H217.11V40.65ZM273.4 116.84H252.79C248.76 116.84 245.92 116.1 244.27 114.62C242.72 112.95 241.95 110.6 241.95 107.54V65.35H273.41V116.84H273.4Z" fill="#BCBEC0"/>
<path d="M273.24 128.08H253.81V137.52H273.24V128.08Z" fill="#BCBEC0"/>
<path d="M217.11 40.65H214.95V48.12H217.11V40.65Z" fill="#BCBEC0"/>
<path d="M364.37 30.85H340.92L329.28 0.160034L317.87 30.72H292.37L292.55 30.85L312.34 45.53L300.43 77.42L364.37 30.85Z" fill="#BCBEC0"/>
</svg>
