<?xml version="1.0" standalone="no"?>
<!DOCTYPE svg PUBLIC "-//W3C//DTD SVG 20010904//EN"
 "http://www.w3.org/TR/2001/REC-SVG-20010904/DTD/svg10.dtd">
<svg version="1.0" xmlns="http://www.w3.org/2000/svg"
 width="465.000000pt" height="537.000000pt" viewBox="0 0 465.000000 537.000000"
 preserveAspectRatio="xMidYMid meet">

<g transform="translate(0.000000,537.000000) scale(0.100000,-0.100000)"
fill="#003E39" stroke="none">
<path d="M2254 5318 c-90 -83 -171 -258 -180 -393 -3 -38 -6 -308 -7 -599 l-2
-529 -215 -157 -215 -157 -3 48 -3 49 -131 0 -131 0 6 -143 7 -142 -82 -60
c-45 -33 -86 -61 -90 -63 -4 -2 -8 19 -8 47 l0 51 -96 0 -96 0 7 -119 7 -118
-468 -343 c-258 -189 -472 -346 -476 -349 -17 -16 -68 -309 -67 -390 l0 -86
27 72 c15 40 32 77 37 82 10 10 245 113 1014 442 l464 200 231 29 c127 17 243
30 257 30 l28 0 4 -613 c4 -610 4 -613 31 -756 14 -80 26 -148 26 -152 0 -4
-145 -137 -322 -296 -178 -159 -342 -314 -365 -344 -51 -67 -92 -148 -132
-263 -27 -77 -29 -88 -14 -83 10 3 238 98 507 212 374 158 491 203 497 193 5
-7 9 -123 10 -258 1 -135 3 -249 4 -255 2 -5 3 -28 4 -49 0 -22 3 -37 6 -34 7
7 13 190 14 413 1 94 5 176 9 183 6 9 120 -35 458 -177 247 -104 471 -199 498
-210 27 -12 51 -19 54 -16 7 7 -45 158 -79 225 -54 109 -114 172 -432 457
-175 157 -321 291 -323 298 -3 6 4 66 15 131 36 213 41 317 41 860 l0 534 26
0 c15 0 131 -14 259 -30 l232 -30 699 -301 c384 -166 718 -309 740 -319 43
-19 44 -20 88 -145 l15 -40 0 82 c1 54 -10 137 -30 240 l-31 158 -41 31 c-23
17 -229 167 -457 334 -228 167 -424 311 -435 321 -18 16 -20 27 -15 133 l5
116 -92 0 -93 0 0 -50 c0 -27 -3 -50 -6 -50 -4 0 -44 28 -91 63 l-84 62 7 143
7 142 -132 0 -131 0 0 -46 c0 -56 -1 -56 -113 26 -45 33 -137 100 -204 150
l-123 90 0 568 c0 533 -1 574 -20 646 -26 102 -93 229 -155 294 -65 66 -88 68
-151 10z"/>
</g>
</svg>
